<svg width="40" height="40" viewBox="0 0 40 40" fill="none" xmlns="http://www.w3.org/2000/svg">
<circle cx="20" cy="20" r="20" fill="white"/>
<path d="M26.055 19.7695C25.4507 18.4395 24.7205 17.1564 23.8874 15.948V14.5833C24.2165 13.9626 24.7275 12.7942 24.9259 11.1794C25.0213 10.4003 25.0213 9.60674 24.9259 8.82067C24.8907 8.54283 24.6555 8.33325 24.3754 8.33325H23.3252C23.2042 8.33325 23.0873 8.37272 22.9913 8.44524C22.4942 8.81854 21.4467 9.44408 19.9997 9.44622H19.9975C18.5484 9.44622 17.4982 8.82067 17.0011 8.44524C16.9056 8.37272 16.7888 8.33325 16.6672 8.33325H15.6245C15.3444 8.33325 15.1066 8.54337 15.074 8.82067C14.9786 9.60674 14.9786 10.4003 15.074 11.1794C15.2724 12.7936 15.7834 13.9631 16.1125 14.5833V15.948C15.2794 17.1591 14.5492 18.4422 13.9444 19.7695C12.3459 23.2834 11.5826 27.1027 11.6738 31.1226C11.6807 31.4234 11.9282 31.6666 12.229 31.6666H27.7703C28.0711 31.6666 28.3186 31.4261 28.3256 31.1226C28.4189 27.1027 27.6535 23.2834 26.055 19.7695Z" fill="white"/>
<path d="M23.8874 15.948C24.7205 17.1564 25.4507 18.4395 26.055 19.7695C27.6535 23.2834 28.4189 27.1027 28.3256 31.1226C28.3186 31.4261 28.0711 31.6666 27.7703 31.6666H12.229C11.9282 31.6666 11.6807 31.4234 11.6738 31.1226C11.5826 27.1027 12.3459 23.2834 13.9444 19.7695C14.5492 18.4422 15.2794 17.1591 16.1125 15.948M23.8874 15.948V14.5833M23.8874 15.948H19.9997H16.1125M23.8874 14.5833C24.2165 13.9626 24.7275 12.7942 24.9259 11.1794C25.0213 10.4003 25.0213 9.60674 24.9259 8.82067C24.8907 8.54283 24.6555 8.33325 24.3754 8.33325H23.3252C23.2042 8.33325 23.0873 8.37272 22.9913 8.44524C22.4942 8.81854 21.4467 9.44408 19.9997 9.44622H19.9975C18.5484 9.44622 17.4982 8.82067 17.0011 8.44524C16.9056 8.37272 16.7888 8.33325 16.6672 8.33325H15.6245C15.3444 8.33325 15.1066 8.54337 15.074 8.82067C14.9786 9.60674 14.9786 10.4003 15.074 11.1794C15.2724 12.7936 15.7834 13.9631 16.1125 14.5833M23.8874 14.5833H19.9997H16.1125M16.1125 14.5833V15.948" stroke="black" stroke-width="1.25" stroke-miterlimit="10"/>
<rect x="16" y="14.6667" width="8" height="1.33333" fill="white"/>
<path d="M23.8874 15.948C24.7205 17.1564 25.4507 18.4395 26.055 19.7695C27.6535 23.2834 28.4189 27.1027 28.3256 31.1226C28.3186 31.4261 28.0711 31.6666 27.7703 31.6666H12.229C11.9282 31.6666 11.6807 31.4234 11.6738 31.1226C11.5826 27.1027 12.3459 23.2834 13.9444 19.7695C14.5492 18.4422 15.2794 17.1591 16.1125 15.948M23.8874 15.948V14.5833M23.8874 15.948H19.9997H16.1125M23.8874 14.5833C24.2165 13.9626 24.7275 12.7942 24.9259 11.1794C25.0213 10.4003 25.0213 9.60674 24.9259 8.82067C24.8907 8.54283 24.6555 8.33325 24.3754 8.33325H23.3252C23.2042 8.33325 23.0873 8.37272 22.9913 8.44524C22.4942 8.81854 21.4467 9.44408 19.9997 9.44622H19.9975C18.5484 9.44622 17.4982 8.82067 17.0011 8.44524C16.9056 8.37272 16.7888 8.33325 16.6672 8.33325H15.6245C15.3444 8.33325 15.1066 8.54337 15.074 8.82067C14.9786 9.60674 14.9786 10.4003 15.074 11.1794C15.2724 12.7936 15.7834 13.9631 16.1125 14.5833M23.8874 14.5833H19.9997H16.1125M16.1125 14.5833V15.948" stroke="black" stroke-miterlimit="10"/>
</svg>
