<svg width="40" height="40" viewBox="0 0 40 40" fill="none" xmlns="http://www.w3.org/2000/svg">
<g clip-path="url(#clip0_448_6426)">
<circle cx="20" cy="20" r="20" fill="white"/>
<path d="M18.3333 19.5L17.1667 19L16.5 19.8333L15.5 22.6667L15 25.1667L15.3333 25.5H16.8333L18.1667 26.1667L18.8333 27.3333L19 28.5L18.6667 29.5L19.5 29.8333H20.5L21.3333 29.5L21 28.8333V28V27L21.6667 26.1667L22.6667 25.5H24L24.8333 25.6667V24.5L24 21L23.1667 19.1667L22.6667 19L21 19.8333H19.5L18.3333 19.5Z" fill="white"/>
<path d="M14.4998 26.5C13.8684 26.8697 12.6919 26.8371 12.1495 26.2947C11.8284 25.9709 11.6665 25.5472 11.6665 25.1235C11.6665 24.6972 11.8284 24.2735 12.1495 23.9524L17.0149 19.087C17.0338 19.0681 17.0527 19.0519 17.0743 19.033L17.077 19.0303C17.0338 19.0627 17.1175 18.9925 17.077 19.0303" fill="white"/>
<path d="M14.4998 26.5C13.8684 26.8697 12.6919 26.8371 12.1495 26.2947C11.8284 25.9709 11.6665 25.5472 11.6665 25.1235C11.6665 24.6972 11.8284 24.2735 12.1495 23.9524L17.0149 19.087C17.0338 19.0681 17.0527 19.0519 17.0743 19.033L17.077 19.0303M17.077 19.0303C17.1175 18.9925 17.0338 19.0627 17.077 19.0303Z" stroke="black" stroke-miterlimit="10"/>
<path d="M22.9141 19.0168L22.9168 19.0195C22.941 19.0411 22.9626 19.0627 22.9842 19.0843L27.8496 23.9497C28.4946 24.5947 28.4946 25.6471 27.8496 26.292C27.5285 26.6131 27.1048 26.775 26.6812 26.775C26.3924 26.775 25.7591 26.6512 25.5 26.5" fill="white"/>
<path d="M22.9141 19.0168L22.9168 19.0195C22.941 19.0411 22.9626 19.0627 22.9842 19.0843L27.8496 23.9497C28.4946 24.5947 28.4946 25.6471 27.8496 26.292C27.5285 26.6131 27.1048 26.775 26.6812 26.775C26.3924 26.775 25.7591 26.6512 25.5 26.5" stroke="black" stroke-miterlimit="10"/>
<path d="M19.1171 28.1432C19.1171 28.6991 18.9471 29.2172 18.6611 29.6462C18.17 30.3775 17.328 30.8579 16.3755 30.8579C14.8616 30.8579 13.6338 29.6435 13.6338 28.1432C13.6338 27.5495 13.8254 26.999 14.1546 26.5537C14.3732 26.2488 14.6592 25.9898 14.9884 25.7982C15.0559 25.7604 15.1234 25.7226 15.1935 25.6902C15.5524 25.5229 15.9518 25.4285 16.3755 25.4285C17.8893 25.4285 19.1171 26.6428 19.1171 28.1432Z" fill="white" stroke="black" stroke-miterlimit="10"/>
<path d="M26.3681 28.1432C26.3681 29.6435 25.1403 30.8579 23.6237 30.8579C22.6712 30.8579 21.8319 30.3775 21.3408 29.6462C21.0548 29.2172 20.8848 28.6991 20.8848 28.1432C20.8848 26.6428 22.1126 25.4285 23.6237 25.4285C24.0501 25.4285 24.4468 25.5202 24.8057 25.6902C24.8786 25.7253 24.9514 25.7631 25.0189 25.8036C25.3454 25.9925 25.6287 26.2488 25.8446 26.551C26.1738 26.999 26.3681 27.5495 26.3681 28.1432Z" fill="white" stroke="black" stroke-miterlimit="10"/>
<path d="M25.2159 11.032C25.2159 9.91209 24.3065 9 23.1839 9C22.2934 9 21.5378 9.57478 21.2625 10.3735C20.8632 10.2629 20.4395 10.2062 19.9996 10.2062C19.5625 10.2062 19.1388 10.2629 18.7367 10.3762C18.4669 9.57748 17.7086 9 16.8181 9C15.6955 9 14.7861 9.91209 14.7861 11.032C14.7861 11.7633 15.1693 12.4055 15.7495 12.759C15.3906 13.4336 15.1882 14.2 15.1882 15.0177C15.1882 16.6341 15.9816 18.0616 17.1986 18.9305C17.9353 19.4621 18.8231 19.7859 19.7865 19.8264C19.8566 19.8291 19.9295 19.8318 19.9996 19.8318C20.0725 19.8318 20.1427 19.8291 20.2155 19.8264C21.1816 19.7859 22.0694 19.4621 22.8088 18.9305C22.8196 18.9224 22.8331 18.9143 22.8439 18.9062C24.0393 18.0319 24.8165 16.6152 24.8165 15.0177C24.8165 14.2 24.6141 13.4336 24.2525 12.759C24.8327 12.4028 25.2159 11.7633 25.2159 11.032Z" fill="white" stroke="black" stroke-miterlimit="10"/>
<path d="M20.8012 15.7541C20.8012 16.1966 20.445 16.5555 19.9997 16.5555C19.5571 16.5555 19.1982 16.1966 19.1982 15.7541C19.1982 15.3142 19.5571 14.9553 19.9997 14.9553C20.4477 14.9553 20.8012 15.3142 20.8012 15.7541Z" stroke="black" stroke-miterlimit="10"/>
<path d="M20.0023 16.9902C20.0023 17.4328 19.6434 17.7917 19.2009 17.7917C18.7583 17.7917 18.3994 17.4328 18.3994 16.9902" stroke="black" stroke-miterlimit="10"/>
<path d="M21.6024 16.9902C21.6024 17.4328 21.2435 17.7917 20.801 17.7917C20.3584 17.7917 19.9995 17.4328 19.9995 16.9902" stroke="black" stroke-miterlimit="10"/>
<path d="M20.002 16.5557V16.9901" stroke="black" stroke-miterlimit="10"/>
<path d="M18.6611 29.6462C19.0848 29.7677 19.5354 29.8324 19.9996 29.8324C20.4637 29.8324 20.9171 29.7677 21.3407 29.6462" stroke="black" stroke-miterlimit="10"/>
<path d="M17.0742 19.0333L17.0772 19.0303" stroke="#222222" stroke-miterlimit="10"/>
<path d="M15.1933 25.6902C15.1879 25.6605 15.1852 25.6335 15.1825 25.6065C15.1583 25.4176 15.1475 25.2233 15.1475 25.0263C15.1475 23.4639 15.9057 20.8679 17.0742 19.033" stroke="black" stroke-miterlimit="10"/>
<path d="M24.8056 25.6903C24.811 25.6606 24.8137 25.6282 24.8164 25.6012C24.8406 25.4123 24.8487 25.2208 24.8487 25.0265C24.8487 23.4586 24.0932 20.8546 22.9166 19.0196L22.9139 19.0169C22.8923 18.9791 22.868 18.944 22.8438 18.9062" stroke="black" stroke-miterlimit="10"/>
</g>
<defs>
<clipPath id="clip0_448_6426">
<rect width="40" height="40" fill="white"/>
</clipPath>
</defs>
</svg>
