<svg width="40" height="40" viewBox="0 0 40 40" fill="none" xmlns="http://www.w3.org/2000/svg">
<g clip-path="url(#clip0_448_6480)">
<circle cx="20" cy="20" r="20" fill="white"/>
<path d="M9 19.8186C9 19.8186 10.5045 17.6738 13 15.8261C13.6567 15.3399 14.3821 14.8742 15.1667 14.4736C16.6381 13.7223 18.3179 13.2 20.1444 13.2C21.971 13.2 23.6508 13.7223 25.1222 14.4736C25.9068 14.8742 26.6322 15.3399 27.2889 15.8261C29.7844 17.6738 31.2889 19.8186 31.2889 19.8186C31.2889 19.8186 29.7844 21.9634 27.2889 23.8111C26.6322 24.2974 25.9068 24.763 25.1222 25.1636C23.6508 25.9149 21.971 26.4373 20.1444 26.4373C18.3179 26.4373 16.6381 25.9149 15.1667 25.1636C14.3821 24.763 13.6567 24.2974 13 23.8111C10.5045 21.9634 9 19.8186 9 19.8186Z" fill="white" stroke="black" stroke-miterlimit="10" stroke-linecap="round" stroke-linejoin="round"/>
<path d="M15.1668 25.1667V14.5L13.0002 15.8333L12.8335 23.6667L15.1668 25.1667Z" fill="white"/>
<path d="M25.1668 25.3333V14.5L27.3335 15.8333V23.6667L25.1668 25.3333Z" fill="white"/>
<path d="M13 15.8261C10.5045 17.6738 9 19.8186 9 19.8186C9 19.8186 10.5045 21.9634 13 23.8111M13 15.8261V23.8111M13 15.8261C13.6567 15.3399 14.3821 14.8742 15.1667 14.4736M13 23.8111C13.6567 24.2974 14.3821 24.763 15.1667 25.1636M15.1667 14.4736C16.6381 13.7223 18.3179 13.2 20.1444 13.2C21.971 13.2 23.6508 13.7223 25.1222 14.4736M15.1667 14.4736V25.1636M15.1667 25.1636C16.6381 25.9149 18.3179 26.4373 20.1444 26.4373C21.971 26.4373 23.6508 25.9149 25.1222 25.1636M27.2889 15.8261C29.7844 17.6738 31.2889 19.8186 31.2889 19.8186C31.2889 19.8186 29.7844 21.9634 27.2889 23.8111M27.2889 15.8261V23.8111M27.2889 15.8261C26.6322 15.3399 25.9068 14.8742 25.1222 14.4736M27.2889 23.8111C26.6322 24.2974 25.9068 24.763 25.1222 25.1636M25.1222 14.4736V25.1636" stroke="black" stroke-miterlimit="10" stroke-linecap="round" stroke-linejoin="round"/>
<path d="M23.333 19.6667H16.6663" stroke="black" stroke-miterlimit="10" stroke-linecap="round"/>
<path d="M18.0557 18.3335L18.0557 21.0002" stroke="black" stroke-miterlimit="10" stroke-linecap="round"/>
<path d="M20 18.3335L20 21.0002" stroke="black" stroke-miterlimit="10" stroke-linecap="round"/>
<path d="M21.9448 18.3335L21.9448 21.0002" stroke="black" stroke-miterlimit="10" stroke-linecap="round"/>
</g>
<defs>
<clipPath id="clip0_448_6480">
<rect width="40" height="40" fill="white"/>
</clipPath>
</defs>
</svg>
