<svg width="40" height="40" viewBox="0 0 40 40" fill="none" xmlns="http://www.w3.org/2000/svg">
<circle cx="20" cy="20" r="20" fill="white"/>
<path d="M19.1668 22.3333C19.1668 24.6345 17.3013 26.5 15.0002 26.5C12.699 26.5 10.8335 24.6345 10.8335 22.3333C10.8335 21.1323 11.3328 18.8668 12.1613 16.8937C12.5739 15.9113 13.0541 15.0358 13.5687 14.415C14.0948 13.7801 14.5811 13.5 15.0002 13.5C15.4193 13.5 15.9055 13.7801 16.4317 14.415C16.9463 15.0358 17.4265 15.9113 17.839 16.8937C18.6675 18.8668 19.1668 21.1323 19.1668 22.3333Z" fill="white" stroke="black"/>
<path d="M28.4998 29.3333C28.4998 31.6345 26.6344 33.5 24.3332 33.5C22.032 33.5 20.1665 31.6345 20.1665 29.3333C20.1665 28.1323 20.6659 25.8668 21.4943 23.8937C21.9069 22.9113 22.3871 22.0358 22.9017 21.415C23.4279 20.7801 23.9141 20.5 24.3332 20.5C24.7523 20.5 25.2385 20.7801 25.7647 21.415C26.2793 22.0358 26.7595 22.9113 27.172 23.8937C28.0005 25.8668 28.4998 28.1323 28.4998 29.3333Z" fill="white" stroke="black"/>
<circle cx="14.9998" cy="11.0001" r="1.83333" fill="white" stroke="black"/>
<circle cx="24.3333" cy="18.0001" r="1.83333" fill="white" stroke="black"/>
<path d="M12.5 6.56258C12.5 6.83872 12.2761 7.06258 12 7.06258C11.7239 7.06258 11.5 6.83872 11.5 6.56258H12.5ZM14.5 6.56258C14.5 5.67618 13.9495 5.16675 13.5 5.16675V4.16675C14.7074 4.16675 15.5 5.3549 15.5 6.56258H14.5ZM13.5 5.16675C13.0505 5.16675 12.5 5.67618 12.5 6.56258H11.5C11.5 5.3549 12.2926 4.16675 13.5 4.16675V5.16675ZM15.5 6.56258V9.00008H14.5V6.56258H15.5Z" fill="black"/>
<path d="M26.8335 13.5626C26.8335 13.8387 27.0574 14.0626 27.3335 14.0626C27.6096 14.0626 27.8335 13.8387 27.8335 13.5626H26.8335ZM24.8335 13.5626C24.8335 12.6762 25.384 12.1667 25.8335 12.1667V11.1667C24.6261 11.1667 23.8335 12.3549 23.8335 13.5626H24.8335ZM25.8335 12.1667C26.283 12.1667 26.8335 12.6762 26.8335 13.5626H27.8335C27.8335 12.3549 27.0409 11.1667 25.8335 11.1667V12.1667ZM23.8335 13.5626V16.0001H24.8335V13.5626H23.8335Z" fill="black"/>
</svg>
