<svg width="40" height="40" viewBox="0 0 40 40" fill="none" xmlns="http://www.w3.org/2000/svg">
<g clip-path="url(#clip0_451_722)">
<circle cx="20" cy="20" r="20" fill="white"/>
<mask id="path-2-inside-1_451_722" fill="white">
<rect x="9.94482" y="9.60693" width="18" height="20.6667" rx="0.666667"/>
</mask>
<rect x="9.94482" y="9.60693" width="18" height="20.6667" rx="0.666667" fill="white" stroke="black" stroke-width="2" mask="url(#path-2-inside-1_451_722)"/>
<mask id="path-3-inside-2_451_722" fill="white">
<rect x="13.6113" y="8.27344" width="10.6667" height="3.33333" rx="0.666667"/>
</mask>
<rect x="13.6113" y="8.27344" width="10.6667" height="3.33333" rx="0.666667" fill="white" stroke="black" stroke-width="2" mask="url(#path-3-inside-2_451_722)"/>
<path d="M20.6113 8.44019C20.6113 7.61176 19.9398 6.94019 19.1113 6.94019C18.2829 6.94019 17.6113 7.61176 17.6113 8.44019" stroke="black"/>
<path d="M29.7972 17.5441L28.7562 15.741L30.4958 14.9369L31.4501 16.5898L29.7972 17.5441Z" fill="white"/>
<path d="M29.7971 17.544L28.8429 15.8911L22.5638 19.4162L21.1309 21.4455L23.6366 21.1008L29.7971 17.544Z" fill="white"/>
<path d="M30.3774 14.9052L22.564 19.4163L20.9999 21.4612L23.5593 21.1055L31.3727 16.5944L30.3774 14.9052Z" stroke="black" stroke-miterlimit="10" stroke-linejoin="round"/>
<path d="M28.8384 15.8137L29.81 17.4966" stroke="black" stroke-miterlimit="10" stroke-linejoin="round"/>
</g>
<defs>
<clipPath id="clip0_451_722">
<rect width="40" height="40" fill="white"/>
</clipPath>
</defs>
</svg>
