<svg width="40" height="40" viewBox="0 0 40 40" fill="none" xmlns="http://www.w3.org/2000/svg">
<circle cx="20" cy="20" r="20" fill="white"/>
<path d="M16.3066 13.1887C16.3066 13.1887 17.4691 12.5772 19.9998 12.6998C22.5306 12.5772 23.6931 13.1887 23.6931 13.1887C23.6931 13.1887 28.2011 8.76429 29.4113 10.2107C30.6215 11.6571 28.201 18.0767 28.201 18.0767C28.201 18.0767 29.0551 20.1597 29.0551 23.4536C29.0551 26.7475 22.7059 30.0645 19.9998 30.0797C17.2938 30.0645 10.9445 26.7475 10.9446 23.4536C10.9446 23.3555 10.9459 23.2585 10.9485 23.1625C11.0338 20.0374 11.7986 18.0767 11.7986 18.0767C11.7986 18.0767 9.37814 11.6571 10.5884 10.2107C11.7986 8.76429 16.3066 13.1887 16.3066 13.1887Z" fill="white"/>
<path d="M10.9485 23.1625C11.0338 20.0374 11.7986 18.0767 11.7986 18.0767C11.7986 18.0767 9.37814 11.6571 10.5884 10.2107C11.7986 8.76429 16.3066 13.1887 16.3066 13.1887C16.3066 13.1887 17.4691 12.5772 19.9998 12.6998C22.5306 12.5772 23.6931 13.1887 23.6931 13.1887C23.6931 13.1887 28.2011 8.7643 29.4113 10.2107C30.6215 11.6571 28.201 18.0767 28.201 18.0767C28.201 18.0767 29.0551 20.1597 29.0551 23.4536C29.0551 26.7475 22.7059 30.0645 19.9998 30.0797C17.2938 30.0645 10.9445 26.7475 10.9446 23.4536C10.9446 23.3555 10.9459 23.2585 10.9485 23.1625ZM10.9485 23.1625C14.8316 22.5094 15.8513 24.6988 15.8513 24.6988C15.8513 24.6988 16.591 21.5627 19.9998 21.5627C23.4087 21.5627 24.1484 24.6988 24.1484 24.6988C24.1484 24.6988 25.1681 22.5094 29.0511 23.1625" stroke="black" stroke-linejoin="round"/>
<path d="M26.3704 23.1966H29.1075V23.9263L27.752 26.142L24.2068 28.6445L20.5314 30.1564H19.1238L14.7184 28.3838L11.7207 25.6207L10.9126 23.1966H13.415L15.8393 24.552L17.2729 22.3623L20.0622 21.5022L22.5646 22.3623L24.2068 24.552L26.3704 23.1966Z" fill="white"/>
<path d="M10.9485 23.1625C11.0338 20.0374 11.7986 18.0767 11.7986 18.0767C11.7986 18.0767 9.37814 11.6571 10.5884 10.2107C11.7986 8.76429 16.3066 13.1887 16.3066 13.1887C16.3066 13.1887 17.4691 12.5772 19.9998 12.6998C22.5306 12.5772 23.6931 13.1887 23.6931 13.1887C23.6931 13.1887 28.2011 8.7643 29.4113 10.2107C30.6215 11.6571 28.201 18.0767 28.201 18.0767C28.201 18.0767 29.0551 20.1597 29.0551 23.4536C29.0551 26.7475 22.7059 30.0645 19.9998 30.0797C17.2938 30.0645 10.9445 26.7475 10.9446 23.4536C10.9446 23.3555 10.9459 23.2585 10.9485 23.1625ZM10.9485 23.1625C14.8316 22.5094 15.8513 24.6988 15.8513 24.6988C15.8513 24.6988 16.591 21.5627 19.9998 21.5627C23.4087 21.5627 24.1484 24.6988 24.1484 24.6988C24.1484 24.6988 25.1681 22.5094 29.0511 23.1625" stroke="black" stroke-linejoin="round"/>
<path d="M23.0093 17.6231C22.8708 17.3459 23.0372 16.3618 23.8271 16.3618C24.6171 16.3618 25.1854 17.1519 24.9359 17.6231C24.6864 18.0944 23.1478 17.9003 23.0093 17.6231Z" fill="white" stroke="black"/>
<path d="M16.7612 17.6231C16.8997 17.3459 16.7333 16.3618 15.9434 16.3618C15.1534 16.3618 14.5851 17.1519 14.8346 17.6231C15.0841 18.0944 16.6227 17.9003 16.7612 17.6231Z" fill="white" stroke="black"/>
<path d="M17.6247 20.3331C17.6247 19.7115 17.1215 19.2083 16.4998 19.2083C15.8782 19.2083 15.375 19.7115 15.375 20.3331" stroke="black" stroke-miterlimit="10" stroke-linecap="round"/>
<path d="M24.6247 20.3331C24.6247 19.7115 24.1215 19.2083 23.4998 19.2083C22.8782 19.2083 22.375 19.7115 22.375 20.3331" stroke="black" stroke-miterlimit="10" stroke-linecap="round"/>
<path d="M18.353 26.3256L19.9307 25.2996L21.7655 26.3256L21.1967 27.47L20.0453 28.1082L18.894 27.581L18.353 26.3256Z" fill="white"/>
<path d="M20.1768 26.5613L21.2171 27.3106L19.934 28.1983L18.6855 27.3106L20.1768 26.5613Z" fill="white"/>
<path d="M21.7672 25.9634C21.7672 27.1351 20.976 28.0853 20.0003 28.0853C19.0246 28.0853 18.2334 27.1351 18.2334 25.9634" stroke="black" stroke-miterlimit="10" stroke-linecap="round" stroke-linejoin="round"/>
<path d="M18.771 27.4375C18.771 26.9809 19.3257 26.6107 20.0098 26.6107C20.6938 26.6107 21.2485 26.9809 21.2485 27.4375" stroke="black" stroke-miterlimit="10" stroke-linecap="round" stroke-linejoin="round"/>
<path d="M20.0002 24.6499C20.0002 25.3751 19.4121 25.9633 18.6869 25.9633C17.9617 25.9633 17.3735 25.3751 17.3735 24.6499" stroke="black" stroke-miterlimit="10" stroke-linecap="round" stroke-linejoin="round"/>
<path d="M20 24.6499V24.1599" stroke="black"/>
<path d="M22.6267 24.6499C22.6267 25.3751 22.0386 25.9633 21.3133 25.9633C20.5881 25.9633 20 25.3751 20 24.6499" stroke="black" stroke-miterlimit="10" stroke-linecap="round" stroke-linejoin="round"/>
<path d="M12.5761 16.59C13.1709 15.404 14.1464 14.4403 15.001 14.0049C15.001 14.0049 12.4389 11.1681 11.7984 11.7173C11.158 12.2665 12.5761 16.59 12.5761 16.59Z" fill="white" stroke="black" stroke-linecap="round" stroke-linejoin="round"/>
<path d="M27.42 16.59C26.8252 15.404 25.8497 14.4403 24.9951 14.0049C24.9951 14.0049 27.5572 11.1681 28.1977 11.7173C28.8381 12.2665 27.42 16.59 27.42 16.59Z" fill="white" stroke="black" stroke-linecap="round" stroke-linejoin="round"/>
<mask id="path-19-inside-1_448_6528" fill="white">
<ellipse cx="20.0001" cy="23.4792" rx="1.40782" ry="0.765112"/>
</mask>
<ellipse cx="20.0001" cy="23.4792" rx="1.40782" ry="0.765112" fill="white"/>
<path d="M20.4079 23.4792C20.4079 23.3227 20.4693 23.2128 20.5081 23.1629C20.542 23.1193 20.5578 23.12 20.5181 23.1416C20.4364 23.186 20.2551 23.2443 20.0001 23.2443V25.2443C20.5226 25.2443 21.0453 25.1314 21.4731 24.8989C21.8623 24.6873 22.4079 24.2299 22.4079 23.4792H20.4079ZM20.0001 23.2443C19.7451 23.2443 19.5638 23.186 19.4821 23.1416C19.4424 23.12 19.4582 23.1193 19.4921 23.1629C19.5309 23.2128 19.5923 23.3227 19.5923 23.4792H17.5923C17.5923 24.2299 18.1379 24.6873 18.5271 24.8989C18.9549 25.1314 19.4776 25.2443 20.0001 25.2443V23.2443ZM19.5923 23.4792C19.5923 23.6358 19.5309 23.7457 19.4921 23.7956C19.4582 23.8391 19.4424 23.8384 19.4821 23.8168C19.5638 23.7724 19.7451 23.7141 20.0001 23.7141V21.7141C19.4776 21.7141 18.9549 21.8271 18.5271 22.0596C18.1379 22.2711 17.5923 22.7286 17.5923 23.4792H19.5923ZM20.0001 23.7141C20.2551 23.7141 20.4364 23.7724 20.5181 23.8168C20.5578 23.8384 20.542 23.8391 20.5081 23.7956C20.4693 23.7457 20.4079 23.6358 20.4079 23.4792H22.4079C22.4079 22.7286 21.8623 22.2711 21.4731 22.0596C21.0453 21.8271 20.5226 21.7141 20.0001 21.7141V23.7141Z" fill="black" mask="url(#path-19-inside-1_448_6528)"/>
</svg>
