<svg width="40" height="40" viewBox="0 0 40 40" fill="none" xmlns="http://www.w3.org/2000/svg">
<g clip-path="url(#clip0_448_6249)">
<circle cx="20" cy="20" r="20" fill="white"/>
<path d="M16.218 10.4424C17.4683 10.6601 18.7115 10.7655 19.9407 10.7585C21.1839 10.7585 22.4271 10.6531 23.6703 10.4424L31.4246 13.4837L30.4413 17.986L27.119 17.2976L26.5922 17.1852V17.7261V28.6621H13.2891V17.7261V17.1852L12.7623 17.2976L9.44006 17.993L8.44971 13.4907L16.218 10.4424Z" fill="white" stroke="black" stroke-linejoin="round"/>
<path d="M23.7056 10.4424C23.7056 12.5074 22.027 14.1861 19.962 14.1861C17.897 14.1861 16.2183 12.5074 16.2183 10.4424" fill="white"/>
<path d="M23.7056 10.4424C23.7056 12.5074 22.027 14.1861 19.962 14.1861C17.897 14.1861 16.2183 12.5074 16.2183 10.4424" stroke="black"/>
<path d="M16.218 10.4424C17.4683 10.6601 18.7115 10.7655 19.9407 10.7585C21.1839 10.7585 22.4271 10.6531 23.6703 10.4424L31.4246 13.4837L30.4413 17.986L27.119 17.2976L26.5922 17.1852V17.7261V28.6621H13.2891V17.7261V17.1852L12.7623 17.2976L9.44006 17.993L8.44971 13.4907L16.218 10.4424Z" stroke="black" stroke-linejoin="round"/>
</g>
<defs>
<clipPath id="clip0_448_6249">
<rect width="40" height="40" fill="white"/>
</clipPath>
</defs>
</svg>
