<svg width="40" height="40" viewBox="0 0 40 40" fill="none" xmlns="http://www.w3.org/2000/svg">
<g clip-path="url(#clip0_448_6271)">
<circle cx="20" cy="20" r="20" fill="white"/>
<path d="M15.7332 8H24.6332C25.0332 8.03333 25.4665 8.2 25.7332 8.53333C25.9998 8.83333 26.1332 9.2 26.1332 9.56667V30.1C26.0998 30.5333 25.9332 30.9 25.6332 31.2C25.3332 31.5 24.9665 31.6333 24.5665 31.6667H15.6998C15.2665 31.6333 14.8332 31.4333 14.5665 31.1C14.2998 30.8 14.1665 30.4333 14.1665 30.0667V9.56667C14.1998 9.16667 14.3332 8.76667 14.6332 8.5C14.9665 8.2 15.3665 8.03333 15.7332 8Z" fill="white" stroke="black" stroke-miterlimit="10"/>
<rect x="14.3335" y="11.3333" width="11.6667" height="16.3333" fill="white"/>
<path d="M15.7332 8H24.6332C25.0332 8.03333 25.4665 8.2 25.7332 8.53333C25.9998 8.83333 26.1332 9.2 26.1332 9.56667V30.1C26.0998 30.5333 25.9332 30.9 25.6332 31.2C25.3332 31.5 24.9665 31.6333 24.5665 31.6667H15.6998C15.2665 31.6333 14.8332 31.4333 14.5665 31.1C14.2998 30.8 14.1665 30.4333 14.1665 30.0667V9.56667C14.1998 9.16667 14.3332 8.76667 14.6332 8.5C14.9665 8.2 15.3665 8.03333 15.7332 8Z" stroke="black" stroke-miterlimit="10"/>
<path d="M20.6665 29.6667C20.6665 29.9334 20.4332 30.1667 20.1665 30.1667C19.8998 30.1667 19.6665 29.9334 19.6665 29.6667C19.6665 29.4001 19.8998 29.1667 20.1665 29.1667C20.4332 29.1667 20.6665 29.4001 20.6665 29.6667Z" stroke="black"/>
<path d="M21.7666 9.69995H18.6333" stroke="black" stroke-linecap="round"/>
<path d="M26.1665 11.4001H14.1665" stroke="black"/>
<path d="M26 27.8333H14" stroke="black"/>
</g>
<defs>
<clipPath id="clip0_448_6271">
<rect width="40" height="40" fill="white"/>
</clipPath>
</defs>
</svg>
