<svg width="40" height="40" viewBox="0 0 40 40" fill="none" xmlns="http://www.w3.org/2000/svg">
<g clip-path="url(#clip0_448_6255)">
<circle cx="20" cy="20" r="20" fill="white"/>
<path d="M20.9997 25.5001L23.833 25.3334L24.1663 25.6667V29.1667L25.333 29.6667L26.333 30.5001V31.5001H21.333L20.9997 31.3334V25.5001Z" fill="white"/>
<path d="M15.9997 25.5001L18.9997 25.3334L19.1663 30.8334L18.9997 31.5001H14.4997L13.833 31.3334L13.9997 30.3334L15.833 29.0001L15.9997 25.5001Z" fill="white"/>
<path d="M18.4997 17.1667L21.4997 17.0001L21.833 17.1667L20.6663 19.3334L19.9997 20.0001L18.4997 17.6667V17.1667Z" fill="white"/>
<path d="M19.9997 12.5001L22.9997 11.5001L24.6663 11.0001V9.83341L23.0651 9.16675L22.833 7.66675L20.1663 6.66675L17.333 7.66675L17.1663 9.16675L15.4997 9.66675V11.1667L19.9997 12.5001Z" fill="white"/>
<path d="M14.333 15.6667L16.1663 15.3334L16.333 18.0001H15.833L13.833 23.3334L12.833 23.8334L11.833 23.5001V22.3334L14.333 15.6667Z" fill="white"/>
<path d="M23.9997 18.1667L23.833 15.5001L25.833 15.6667L28.4997 22.3334L28.1663 23.5001L27.1663 23.8334L26.333 23.3334L24.6663 18.6667L23.9997 18.1667Z" fill="white"/>
<path d="M19.9997 12.5L22.9997 11.6667V13.5L22.833 14L21.833 14.1667L21.1663 14.6667L21.4997 15.3333L23.6663 15.5V25.3333H21.4997L20.4997 24.1667L19.333 24.3333L18.6663 25.3333H16.333V15.5L18.4997 15.3333L18.833 15L18.6663 14.1667L17.4997 14L17.1663 13.6667V11.5L19.9997 12.5Z" fill="white"/>
<path d="M17.1475 9.25073V11.5598L19.9308 12.3779C20.0183 12.407 20.11 12.407 20.1933 12.3779L22.9766 11.5598V9.25073" stroke="black" stroke-miterlimit="10"/>
<path d="M18.4517 17.262C18.3767 17.3907 18.3808 17.5527 18.4558 17.6815L19.7058 19.758C19.8225 19.9532 20.0808 20.0196 20.2767 19.8992C20.335 19.8659 20.385 19.8161 20.4183 19.758L21.6683 17.6815C21.785 17.4863 21.7225 17.2288 21.5267 17.1125C21.46 17.0751 21.3892 17.0544 21.3142 17.0544H18.8142C18.6642 17.0502 18.5267 17.1291 18.4517 17.262Z" fill="white" stroke="black" stroke-miterlimit="10"/>
<path d="M20.064 10.8207C20.7556 10.8207 21.314 10.2642 21.314 9.57476C21.314 8.88536 20.7556 8.32886 20.064 8.32886C19.3723 8.32886 18.814 8.88536 18.814 9.57476C18.814 10.2642 19.3723 10.8207 20.064 10.8207Z" fill="white" stroke="black" stroke-miterlimit="10"/>
<path d="M23.814 25.3562H21.314" stroke="black" stroke-miterlimit="10"/>
<path d="M18.814 25.3562H16.314" stroke="black" stroke-miterlimit="10"/>
<path d="M21.3136 25.3565C21.0845 25.3565 20.897 25.5434 20.897 25.7718V31.1707C20.897 31.3991 21.0845 31.586 21.3136 31.586H25.897C26.122 31.586 26.3136 31.3991 26.3136 31.1748C26.3053 29.8791 25.272 29.443 24.3678 29.2188L24.2303 29.1856V25.7718C24.2303 25.5434 24.0428 25.3565 23.8136 25.3565V18.7117" stroke="black" stroke-miterlimit="10"/>
<path d="M23.8137 18.7115V15.3891H21.7304C21.5012 15.3891 21.3137 15.2022 21.3137 14.9738V14.5585C21.3137 14.3301 21.5012 14.1432 21.7304 14.1432H22.5637C22.7929 14.1432 22.9804 13.9563 22.9804 13.7279V11.56L24.3304 11.2236C24.5137 11.1779 24.647 11.0118 24.647 10.8208V9.99019C24.647 9.79915 24.5179 9.63303 24.3304 9.58735L22.9804 9.25096V7.91369C22.9804 7.73511 22.8637 7.57729 22.697 7.51915L20.197 6.68855C20.1095 6.65948 20.0179 6.65948 19.9345 6.68855L17.4345 7.51915C17.2637 7.57729 17.1512 7.73511 17.1512 7.91369V9.25096L15.8012 9.58735C15.6179 9.63303 15.4845 9.79915 15.4845 9.99019V10.8208C15.4845 11.0118 15.6137 11.1779 15.8012 11.2236L17.1512 11.56V13.7279C17.1512 13.9563 17.3387 14.1432 17.5679 14.1432H18.4054C18.6345 14.1432 18.8179 14.3259 18.8179 14.5543V14.9738C18.8179 15.2022 18.6304 15.3891 18.4012 15.3891H16.3179V18.7115V25.3563C16.0887 25.3563 15.9012 25.5432 15.9012 25.7716V29.1854L15.7637 29.2186C14.8637 29.4429 13.8262 29.8374 13.8179 31.1747C13.8179 31.3989 14.0095 31.5817 14.2345 31.5817H18.8179C19.047 31.5817 19.2345 31.3948 19.2345 31.1664V25.7675C19.2345 25.539 19.047 25.3522 18.8179 25.3522" stroke="black" stroke-miterlimit="10"/>
<path d="M18.814 25.3563C18.814 24.6669 19.3723 24.1104 20.064 24.1104C20.7556 24.1104 21.314 24.6669 21.314 25.3563" stroke="black" stroke-miterlimit="10"/>
<path d="M23.8056 15.3892L24.8556 15.3933C25.3972 15.3933 25.8639 15.7172 26.0681 16.1824L28.3597 22.3745C28.5347 22.848 28.2931 23.554 27.6889 23.7699C27.0847 23.9859 26.3556 23.637 26.1806 23.1636L24.4264 18.3253C24.3639 18.1509 24.1972 18.0305 24.0097 18.0305H23.7681" stroke="black" stroke-miterlimit="10"/>
<path d="M16.2763 15.3892L15.2263 15.3933C14.6846 15.3933 14.218 15.7172 14.0138 16.1824L11.7221 22.3745C11.5471 22.848 11.7888 23.554 12.393 23.7699C12.9971 23.9859 13.7263 23.637 13.9013 23.1636L15.6555 18.3253C15.718 18.1509 15.8846 18.0305 16.0721 18.0305H16.3138" stroke="black" stroke-miterlimit="10"/>
</g>
<defs>
<clipPath id="clip0_448_6255">
<rect width="40" height="40" fill="white"/>
</clipPath>
</defs>
</svg>
