<svg width="40" height="40" viewBox="0 0 40 40" fill="none" xmlns="http://www.w3.org/2000/svg">
<g clip-path="url(#clip0_448_6339)">
<circle cx="20" cy="20" r="20" fill="white"/>
<path d="M14.6628 26.345L15.9454 23.7072L16.3333 21.9999H23L23.4957 23.7072L25.1171 26.3692C25.6979 27.2162 26.6659 27.7244 27.6823 27.7244C29.3763 27.7244 30.7799 26.345 30.7799 24.6268C30.7799 24.409 30.7557 24.1912 30.7073 23.9976L29.2795 16.3746C28.9165 14.1482 27.0773 12.5027 24.8025 12.3575L15.292 12.3333C12.8962 12.3333 10.8876 14.0514 10.5004 16.3746L9.0726 23.9976C9.0242 24.1912 9 24.409 9 24.6268C9 26.345 10.4036 27.7244 12.1218 27.7002C13.1382 27.7002 14.1062 27.192 14.6628 26.345Z" fill="white"/>
<path d="M16.7682 23.9008C17.7361 23.9008 18.5347 23.1022 18.5347 22.1342C18.5347 21.1662 17.7361 20.3676 16.7682 20.3676C15.8002 20.3676 15.0016 21.1662 15.0016 22.1342C15.0016 23.1022 15.8002 23.9008 16.7682 23.9008ZM15.8728 15.1646V16.2052H16.9134C17.3006 16.2052 17.591 16.4956 17.591 16.8828C17.591 17.27 17.3006 17.5604 16.9134 17.5604H15.8728V18.601C15.8728 18.9882 15.5824 19.2786 15.1952 19.2786C14.808 19.2786 14.5176 18.9882 14.5176 18.601V17.5604H13.477C13.0898 17.5604 12.7994 17.27 12.7994 16.8828C12.7994 16.4956 13.0898 16.2052 13.477 16.2052H14.5176V15.1646C14.5176 14.7774 14.808 14.487 15.1952 14.487C15.5582 14.487 15.8728 14.7774 15.8728 15.1646Z" fill="white"/>
<path d="M15.9454 23.7072L14.6628 26.345C14.1062 27.192 13.1382 27.7002 12.1218 27.7002C10.4036 27.7244 9 26.345 9 24.6268C9 24.409 9.0242 24.1912 9.0726 23.9976L10.5004 16.3746C10.8876 14.0514 12.8962 12.3333 15.292 12.3333L24.8025 12.3575C27.0773 12.5027 28.9165 14.1482 29.2795 16.3746L30.7073 23.9976C30.7557 24.1912 30.7799 24.409 30.7799 24.6268C30.7799 26.345 29.3763 27.7244 27.6823 27.7244C26.6659 27.7244 25.6979 27.2162 25.1171 26.3692L23.4957 23.7072M16.7682 23.9008C17.7361 23.9008 18.5347 23.1022 18.5347 22.1342C18.5347 21.1662 17.7361 20.3676 16.7682 20.3676C15.8002 20.3676 15.0016 21.1662 15.0016 22.1342C15.0016 23.1022 15.8002 23.9008 16.7682 23.9008ZM15.8728 15.1646V16.2052H16.9134C17.3006 16.2052 17.591 16.4956 17.591 16.8828C17.591 17.27 17.3006 17.5604 16.9134 17.5604H15.8728V18.601C15.8728 18.9882 15.5824 19.2786 15.1952 19.2786C14.808 19.2786 14.5176 18.9882 14.5176 18.601V17.5604H13.477C13.0898 17.5604 12.7994 17.27 12.7994 16.8828C12.7994 16.4956 13.0898 16.2052 13.477 16.2052H14.5176V15.1646C14.5176 14.7774 14.808 14.487 15.1952 14.487C15.5582 14.487 15.8728 14.7774 15.8728 15.1646Z" stroke="black" stroke-miterlimit="10"/>
<path d="M22.6973 23.9009C23.6729 23.9009 24.4638 23.1099 24.4638 22.1343C24.4638 21.1586 23.6729 20.3677 22.6973 20.3677C21.7216 20.3677 20.9307 21.1586 20.9307 22.1343C20.9307 23.1099 21.7216 23.9009 22.6973 23.9009Z" fill="white" stroke="black" stroke-miterlimit="10"/>
<path d="M18.5591 22.134H20.9065" stroke="black" stroke-miterlimit="10"/>
<circle cx="24.1773" cy="18.3711" r="0.666667" transform="rotate(-45 24.1773 18.3711)" fill="white" stroke="black"/>
<circle cx="22.3164" cy="16.5103" r="0.666667" transform="rotate(-45 22.3164 16.5103)" fill="white" stroke="black"/>
<circle cx="24.1773" cy="14.6497" r="0.666667" transform="rotate(-45 24.1773 14.6497)" fill="white" stroke="black"/>
<circle cx="26.0376" cy="16.5103" r="0.666667" transform="rotate(-45 26.0376 16.5103)" fill="white" stroke="black"/>
</g>
<defs>
<clipPath id="clip0_448_6339">
<rect width="40" height="40" fill="white"/>
</clipPath>
</defs>
</svg>
