<svg width="40" height="40" viewBox="0 0 40 40" fill="none" xmlns="http://www.w3.org/2000/svg">
<g clip-path="url(#clip0_448_6408)">
<circle cx="20" cy="20" r="20" fill="white"/>
<path d="M12.975 14.3379L28.8928 14.3407C28.9128 14.3407 28.9328 14.3407 28.9556 14.3407C29.7579 14.3722 30.4032 14.9946 30.4032 15.7512L30.4546 16.6877L30.5774 18.969L30.7059 21.336L30.8258 23.5174L30.9514 25.8016L31 26.6752C31 27.4519 30.3204 28.0886 29.4924 28.0886H28.9585H26.6743H24.3901H22.106H19.8218H17.5376H15.2535H12.9693H10.6851H10.1741C9.34319 28.0886 8.6665 27.4519 8.6665 26.6752L8.71504 25.8016L8.84067 23.5174L8.96059 21.336L9.08907 18.9719L9.2147 16.6877L9.2661 15.7512C9.2661 15.0003 9.89995 14.3836 10.6908 14.3407C10.7194 14.3379 10.748 14.3379 10.7765 14.3379H12.975Z" fill="white" stroke="black" stroke-miterlimit="10"/>
<path d="M24.5 15.5481V14.5H26.5V15.6365C26.5 16.0527 26.2641 16.4329 25.8912 16.6177C25.6832 16.7208 25.4401 16.7253 25.2284 16.6302L25.1884 16.6122C24.7695 16.4239 24.5 16.0074 24.5 15.5481Z" fill="white" stroke="black"/>
<path d="M13.1665 15.5481V14.5H15.1665V15.6365C15.1665 16.0527 14.9306 16.4329 14.5577 16.6177C14.3497 16.7208 14.1066 16.7253 13.8949 16.6302L13.8549 16.6122C13.436 16.4239 13.1665 16.0074 13.1665 15.5481Z" fill="white" stroke="black"/>
<path d="M14.1089 14.3407C14.1089 11.7596 16.6672 9.66675 19.8193 9.66675C22.9743 9.66675 25.5297 11.7596 25.5297 14.3407" stroke="black" stroke-miterlimit="10"/>
<path d="M17.6959 19.8015C17.6772 19.7577 17.6665 19.7051 17.6665 19.6526V18.0172C17.6665 17.9646 17.6772 17.915 17.6959 17.8682C17.7467 17.7485 17.8589 17.6667 17.9871 17.6667H19.8332H21.6792C21.8075 17.6667 21.917 17.7485 21.9705 17.8682C21.9892 17.915 21.9998 17.9646 21.9998 18.0172V19.6526C21.9998 19.7051 21.9892 19.7577 21.9705 19.8015C21.9277 19.9008 21.8449 19.9738 21.746 19.9942C21.7247 20.0001 21.7033 20.0001 21.6819 20.0001H19.8358H17.9898C17.9684 20.0001 17.947 19.9972 17.9256 19.9942C17.8241 19.9738 17.7386 19.9008 17.6959 19.8015Z" fill="white" stroke="black" stroke-miterlimit="10"/>
</g>
<defs>
<clipPath id="clip0_448_6408">
<rect width="40" height="40" fill="white"/>
</clipPath>
</defs>
</svg>
