<svg width="40" height="40" viewBox="0 0 40 40" fill="none" xmlns="http://www.w3.org/2000/svg">
<g clip-path="url(#clip0_448_6281)">
<circle cx="20" cy="20" r="20" fill="white"/>
<path d="M24.6644 31.0326H12.6494C13.7866 28.8854 16.0502 27.4219 18.6569 27.4219C21.2635 27.4219 23.5272 28.8854 24.6644 31.0326Z" fill="white" stroke="black" stroke-miterlimit="10" stroke-linejoin="round"/>
<path d="M18.6573 27.4219L13.3965 22.1819" stroke="black" stroke-miterlimit="10" stroke-linejoin="round"/>
<path d="M13.2227 19.0228L19.1923 13.0774" stroke="black" stroke-miterlimit="10" stroke-linejoin="round"/>
<path d="M14.1583 20.66C14.1583 21.2819 13.859 21.8337 13.3962 22.1816C13.0765 22.4222 12.6777 22.5647 12.2459 22.5647C11.1898 22.5647 10.3335 21.7119 10.3335 20.66C10.3335 19.6082 11.1898 18.7554 12.2459 18.7554C12.6025 18.7554 12.9367 18.8525 13.2225 19.0226C13.7828 19.3545 14.1583 19.9633 14.1583 20.66Z" fill="white" stroke="black" stroke-miterlimit="10" stroke-linejoin="round"/>
<path d="M23.1824 9.50709C22.2379 9.7192 21.3816 10.1632 20.6932 10.8489C20.1445 11.3948 19.7501 12.0471 19.5051 12.7656L19.5046 12.7661C19.4551 12.9096 19.412 13.056 19.3746 13.2048C19.313 13.1647 19.2523 13.1217 19.1922 13.0773C19.0326 12.9589 18.8778 12.826 18.7313 12.6801C17.404 11.3581 16.5427 10.0801 18.2714 8.35134C20.0001 6.62259 21.2909 7.48742 22.6177 8.8089C22.837 9.0273 23.0253 9.26212 23.1824 9.50709Z" fill="white" stroke="black" stroke-miterlimit="10" stroke-linejoin="round"/>
<path d="M30.6665 12.0947L28.5824 14.1704L24.1143 18.621L21.9442 20.7822C19.6917 18.5388 18.7802 15.577 19.3745 13.2051C19.4118 13.0562 19.455 12.9098 19.5045 12.7663L19.505 12.7659C19.75 12.0474 20.1444 11.3951 20.6931 10.8491C21.3815 10.1635 22.2377 9.71944 23.1823 9.50733C25.5425 8.97535 28.4529 9.89 30.6665 12.0947Z" fill="white" stroke="black" stroke-miterlimit="10" stroke-linejoin="round"/>
<path d="M29.1092 15.9304C29.1092 17.706 27.664 19.1449 25.8811 19.1449C25.2286 19.1449 24.6217 18.9521 24.1143 18.6207L28.5824 14.1702C28.9157 14.676 29.1092 15.2805 29.1092 15.9304Z" fill="white" stroke="black" stroke-miterlimit="10" stroke-linejoin="round"/>
</g>
<defs>
<clipPath id="clip0_448_6281">
<rect width="40" height="40" fill="white"/>
</clipPath>
</defs>
</svg>
