<svg width="40" height="40" viewBox="0 0 40 40" fill="none" xmlns="http://www.w3.org/2000/svg">
<g clip-path="url(#clip0_448_6462)">
<circle cx="20" cy="20" r="20" transform="matrix(-1 0 0 1 40 0)" fill="white"/>
<path d="M15.0165 7.66675L12.3332 18.6511L14.8248 20.5782L16.1665 19.6147L17.5082 18.6511L18.9998 19.8334V30.0209C14.2498 30.0209 14.2498 32.3334 14.2498 32.3334H25.7498C25.7498 32.3334 25.7498 30.0209 20.8332 30.0209V20.0001L22.4915 18.6511L24.9832 20.5782L27.6665 18.6511L24.9832 7.66675H21.9165H17.8915H15.0165Z" fill="white"/>
<path d="M17.5082 18.6511L17.8915 7.66675M17.5082 18.6511L18.9998 19.8334M17.5082 18.6511L16.1665 19.6147M22.4915 18.6511L24.9832 20.5782L27.6665 18.6511L24.9832 7.66675H21.9165M22.4915 18.6511L21.9165 7.66675M22.4915 18.6511L20.8332 20.0001M21.9165 7.66675H17.8915M17.8915 7.66675H15.0165L12.3332 18.6511L14.8248 20.5782L16.1665 19.6147M20.8332 20.0001L19.9998 20.5782L18.9998 19.8334M20.8332 20.0001V30.0209M20.8332 30.0209H18.9998M20.8332 30.0209C25.7498 30.0209 25.7498 32.3334 25.7498 32.3334H14.2498C14.2498 32.3334 14.2498 30.0209 18.9998 30.0209M18.9998 19.8334V30.0209M16.1665 19.6147V22.698" stroke="black" stroke-linecap="round" stroke-linejoin="round"/>
<path d="M19.9997 20.6668L18.9997 19.8335V29.8335H20.833V20.0002L19.9997 20.6668Z" fill="white"/>
<path d="M17.5082 18.6511L17.8915 7.66675M17.5082 18.6511L18.9998 19.8334M17.5082 18.6511L16.1665 19.6147M22.4915 18.6511L24.9832 20.5782L27.6665 18.6511L24.9832 7.66675H21.9165M22.4915 18.6511L21.9165 7.66675M22.4915 18.6511L20.8332 20.0001M21.9165 7.66675H17.8915M17.8915 7.66675H15.0165L12.3332 18.6511L14.8248 20.5782L16.1665 19.6147M20.8332 20.0001L19.9998 20.5782L18.9998 19.8334M20.8332 20.0001V30.0209M20.8332 30.0209H18.9998M20.8332 30.0209C25.7498 30.0209 25.7498 32.3334 25.7498 32.3334H14.2498C14.2498 32.3334 14.2498 30.0209 18.9998 30.0209M18.9998 19.8334V30.0209M16.1665 19.6147V22.698" stroke="black" stroke-linecap="round" stroke-linejoin="round"/>
<circle cx="1.16667" cy="1.16667" r="0.666667" transform="matrix(-1 0 0 1 17.333 22.6667)" fill="white" stroke="black" stroke-linecap="round" stroke-linejoin="round"/>
</g>
<defs>
<clipPath id="clip0_448_6462">
<rect width="40" height="40" fill="white" transform="matrix(-1 0 0 1 40 0)"/>
</clipPath>
</defs>
</svg>
