<svg width="143" height="45" fill="none" xmlns="http://www.w3.org/2000/svg"><g clip-path="url(#a)"><path d="M131.601 0H10.727c-.413 0-.82 0-1.232.002-.344.003-.686.01-1.034.015-.755.008-1.509.075-2.254.198a7.498 7.498 0 0 0-2.139.706 7.242 7.242 0 0 0-3.85 5.29 14.617 14.617 0 0 0-.201 2.253C.007 8.809.006 9.154 0 9.5v26.004c.006.349.007.687.017 1.037.009.754.076 1.507.202 2.252.123.745.36 1.468.703 2.142.34.673.788 1.286 1.325 1.816a7.06 7.06 0 0 0 1.821 1.326 7.537 7.537 0 0 0 2.139.71c.745.122 1.499.189 2.254.199.348.007.69.012 1.034.012.411.002.819.002 1.232.002H131.6c.404 0 .815 0 1.219-.002.343 0 .694-.005 1.037-.012.754-.01 1.506-.076 2.25-.2a7.657 7.657 0 0 0 2.147-.709 7.059 7.059 0 0 0 1.819-1.326 7.212 7.212 0 0 0 1.33-1.816 7.453 7.453 0 0 0 .696-2.142c.125-.745.195-1.498.209-2.252.004-.35.004-.688.004-1.037.009-.41.009-.816.009-1.231V10.728c0-.412 0-.82-.009-1.228 0-.345 0-.691-.004-1.036a15.318 15.318 0 0 0-.209-2.252 7.448 7.448 0 0 0-.696-2.142 7.278 7.278 0 0 0-3.149-3.15 7.617 7.617 0 0 0-2.147-.705 14.677 14.677 0 0 0-2.25-.199c-.343-.005-.694-.012-1.037-.014C132.416 0 132.005 0 131.601 0Z" fill="#A6A6A6"/><path d="M9.5 44.016c-.342 0-.677-.005-1.017-.012-.704-.01-1.407-.07-2.103-.184a6.619 6.619 0 0 1-1.864-.616 6.08 6.08 0 0 1-1.571-1.144 5.985 5.985 0 0 1-1.148-1.571 6.438 6.438 0 0 1-.611-1.864 13.964 13.964 0 0 1-.187-2.11c-.008-.237-.017-1.027-.017-1.027V9.5s.01-.778.017-1.006c.008-.706.07-1.41.186-2.107.107-.65.313-1.28.611-1.87a6.262 6.262 0 0 1 2.72-2.723 6.551 6.551 0 0 1 1.86-.611 14.16 14.16 0 0 1 2.11-.185L9.5.984h123.314l1.027.015c.7.008 1.399.07 2.09.183a6.673 6.673 0 0 1 1.88.616 6.29 6.29 0 0 1 2.717 2.722c.293.585.496 1.21.602 1.855.117.702.182 1.412.196 2.123.003.32.003.661.003 1.002.009.422.009.823.009 1.228v23.545c0 .409 0 .807-.009 1.21 0 .365 0 .7-.004 1.045a14.43 14.43 0 0 1-.193 2.086 6.474 6.474 0 0 1-.607 1.878 6.166 6.166 0 0 1-1.143 1.56 6.081 6.081 0 0 1-1.574 1.15c-.591.299-1.224.507-1.877.618-.695.114-1.398.175-2.102.184-.33.007-.675.012-1.01.012l-1.219.002-122.1-.002Z" fill="#000"/><path d="M27.868 22.838a5.567 5.567 0 0 1 2.651-4.67 5.699 5.699 0 0 0-4.49-2.428c-1.889-.199-3.72 1.13-4.683 1.13-.981 0-2.463-1.11-4.06-1.078a5.98 5.98 0 0 0-5.032 3.07c-2.175 3.766-.552 9.302 1.532 12.347 1.043 1.491 2.261 3.157 3.856 3.098 1.56-.065 2.143-.995 4.027-.995 1.866 0 2.413.995 4.04.957 1.674-.027 2.729-1.497 3.735-3.003a12.333 12.333 0 0 0 1.708-3.479 5.38 5.38 0 0 1-3.284-4.949ZM24.795 13.737A5.48 5.48 0 0 0 26.05 9.81a5.577 5.577 0 0 0-3.608 1.867 5.215 5.215 0 0 0-1.287 3.782 4.611 4.611 0 0 0 3.641-1.722ZM40.112 16.54v-5.765h-2.111v-.948h5.26v.948h-2.106v5.764h-1.043ZM48.11 15.172a2.057 2.057 0 0 1-2.195 1.465 2.301 2.301 0 0 1-2.34-2.615 2.337 2.337 0 0 1 2.336-2.646c1.41 0 2.26.963 2.26 2.554v.348h-3.578v.056a1.34 1.34 0 0 0 1.35 1.452 1.214 1.214 0 0 0 1.205-.614h.962Zm-3.517-1.633h2.56a1.222 1.222 0 0 0-1.248-1.312 1.295 1.295 0 0 0-1.312 1.312Zm.717-2.912 1.168-1.6h1.172l-1.307 1.6H45.31ZM49.56 9.496h1v7.043h-1V9.496ZM56.484 15.172a2.056 2.056 0 0 1-2.195 1.465 2.301 2.301 0 0 1-2.34-2.615 2.335 2.335 0 0 1 2.336-2.646c1.41 0 2.26.963 2.26 2.554v.348h-3.578v.056a1.338 1.338 0 0 0 1.35 1.452 1.214 1.214 0 0 0 1.205-.614h.962Zm-3.517-1.633h2.559a1.222 1.222 0 0 0-1.247-1.312 1.295 1.295 0 0 0-1.312 1.312Zm.717-2.912 1.167-1.6h1.173l-1.308 1.6h-1.032ZM61.204 13.13a1.132 1.132 0 0 0-1.197-.861c-.837 0-1.349.642-1.349 1.721 0 1.098.517 1.754 1.35 1.754a1.1 1.1 0 0 0 1.196-.833h.972a1.983 1.983 0 0 1-2.163 1.726 2.327 2.327 0 0 1-2.378-2.647 2.31 2.31 0 0 1 2.372-2.614 2 2 0 0 1 2.17 1.753h-.973ZM63.503 9.496h.991v2.792h.08a1.559 1.559 0 0 1 1.544-.908 1.67 1.67 0 0 1 1.745 1.889v3.27h-1.001v-3.024c0-.809-.377-1.219-1.084-1.219a1.183 1.183 0 0 0-1.275 1.285v2.958h-1V9.496ZM69.12 15.107c0-.912.678-1.438 1.884-1.513l1.372-.079v-.437c0-.535-.354-.837-1.037-.837-.558 0-.945.205-1.056.563h-.968c.102-.87.92-1.428 2.07-1.428 1.27 0 1.986.632 1.986 1.702v3.461h-.962v-.712h-.08a1.704 1.704 0 0 1-1.521.796 1.531 1.531 0 0 1-1.689-1.516Zm3.256-.433v-.424l-1.237.08c-.698.046-1.014.283-1.014.73 0 .456.395.721.939.721a1.192 1.192 0 0 0 1.312-1.107ZM74.936 11.474h.962v.776h.075a1.374 1.374 0 0 1 1.368-.86c.15-.002.3.012.446.041v.987c-.183-.04-.37-.06-.558-.06a1.188 1.188 0 0 0-1.293 1.19v2.992h-1v-5.066ZM78.707 17.046h1.023c.084.368.507.605 1.182.605.832 0 1.326-.395 1.326-1.065v-.972h-.075a1.704 1.704 0 0 1-1.563.85c-1.293 0-2.093-1-2.093-2.516 0-1.544.808-2.559 2.102-2.559a1.755 1.755 0 0 1 1.591.894h.08v-.81h.957v5.108c0 1.159-.907 1.893-2.34 1.893-1.265 0-2.084-.567-2.19-1.428Zm3.55-3.103c0-1.009-.523-1.655-1.374-1.655-.86 0-1.344.646-1.344 1.655 0 1.01.484 1.657 1.344 1.657.857 0 1.373-.642 1.373-1.657ZM89.114 15.172a2.056 2.056 0 0 1-2.195 1.465 2.3 2.3 0 0 1-2.34-2.615 2.337 2.337 0 0 1 2.336-2.646c1.41 0 2.26.963 2.26 2.554v.348h-3.578v.056a1.338 1.338 0 0 0 1.35 1.452 1.214 1.214 0 0 0 1.205-.614h.962Zm-3.517-1.633h2.559a1.222 1.222 0 0 0-1.247-1.312 1.297 1.297 0 0 0-1.312 1.312ZM90.517 11.474h.962v.776h.075a1.374 1.374 0 0 1 1.368-.86c.15-.002.3.012.446.041v.987c-.183-.04-.37-.06-.558-.06a1.188 1.188 0 0 0-1.293 1.19v2.992h-1v-5.066ZM96.97 14.004c0-1.6.823-2.614 2.103-2.614a1.67 1.67 0 0 1 1.554.888h.074V9.496h1v7.043h-.958v-.8h-.079a1.757 1.757 0 0 1-1.59.884c-1.29 0-2.104-1.014-2.104-2.619Zm1.033 0c0 1.075.507 1.721 1.354 1.721.842 0 1.363-.656 1.363-1.716 0-1.056-.526-1.721-1.363-1.721-.842 0-1.354.65-1.354 1.716ZM103.052 15.107c0-.912.679-1.438 1.884-1.513l1.373-.079v-.437c0-.535-.354-.837-1.037-.837-.559 0-.945.205-1.056.563h-.968c.102-.87.921-1.428 2.07-1.428 1.27 0 1.986.632 1.986 1.702v3.461h-.962v-.712h-.079a1.705 1.705 0 0 1-1.522.796 1.53 1.53 0 0 1-1.689-1.516Zm3.257-.433v-.424l-1.237.08c-.698.046-1.014.283-1.014.73 0 .456.395.721.939.721a1.191 1.191 0 0 0 1.186-.649c.072-.142.115-.298.126-.458ZM108.87 11.474h.962v.804h.075a1.51 1.51 0 0 1 1.511-.902 1.653 1.653 0 0 1 1.33.52 1.641 1.641 0 0 1 .424 1.364v3.28h-1V13.51c0-.814-.354-1.219-1.093-1.219a1.166 1.166 0 0 0-.9.364 1.166 1.166 0 0 0-.31.92v2.963h-.999v-5.065ZM116.57 11.376c1.139 0 1.884.53 1.982 1.423h-.959c-.092-.372-.456-.61-1.023-.61-.558 0-.982.266-.982.661 0 .303.256.493.805.62l.842.194c.963.224 1.415.638 1.415 1.382 0 .954-.889 1.591-2.099 1.591-1.205 0-1.99-.544-2.079-1.442h1a1.032 1.032 0 0 0 1.102.632c.623 0 1.066-.279 1.066-.684 0-.302-.237-.497-.745-.618l-.883-.205c-.964-.228-1.41-.66-1.41-1.414 0-.898.823-1.53 1.968-1.53ZM39.598 20.325h2.092v13.971h-2.092v-13.97ZM44.21 25.437l1.143-5.112h2.032l-1.384 5.112h-1.79ZM55.29 30.52h-5.325l-1.28 3.776H46.43l5.044-13.97h2.344l5.043 13.97h-2.293L55.29 30.52Zm-4.774-1.742h4.221l-2.08-6.13h-.059l-2.082 6.13ZM69.753 29.204c0 3.165-1.694 5.199-4.25 5.199a3.453 3.453 0 0 1-3.205-1.782h-.048v5.045h-2.091V24.11h2.024v1.694h.038a3.614 3.614 0 0 1 3.243-1.8c2.585 0 4.29 2.043 4.29 5.2Zm-2.149 0c0-2.063-1.065-3.418-2.691-3.418-1.598 0-2.672 1.384-2.672 3.418 0 2.052 1.074 3.427 2.672 3.427 1.626 0 2.691-1.346 2.691-3.427ZM80.963 29.204c0 3.165-1.694 5.199-4.25 5.199a3.453 3.453 0 0 1-3.205-1.782h-.048v5.045h-2.09V24.11h2.022v1.694h.039a3.613 3.613 0 0 1 3.243-1.8c2.585 0 4.29 2.043 4.29 5.2Zm-2.149 0c0-2.063-1.065-3.418-2.691-3.418-1.598 0-2.672 1.384-2.672 3.418 0 2.052 1.074 3.427 2.672 3.427 1.626 0 2.691-1.346 2.691-3.427ZM88.372 30.404c.155 1.385 1.501 2.295 3.34 2.295 1.762 0 3.03-.91 3.03-2.16 0-1.084-.764-1.733-2.575-2.178l-1.81-.437c-2.566-.62-3.757-1.819-3.757-3.766 0-2.41 2.1-4.066 5.084-4.066 2.952 0 4.975 1.656 5.044 4.066h-2.111c-.126-1.394-1.279-2.235-2.963-2.235-1.684 0-2.837.851-2.837 2.09 0 .988.736 1.57 2.537 2.014l1.54.378c2.866.678 4.056 1.83 4.056 3.873 0 2.614-2.081 4.251-5.393 4.251-3.098 0-5.19-1.599-5.325-4.125h2.14ZM101.464 21.7v2.41h1.937v1.656h-1.937v5.615c0 .873.388 1.28 1.239 1.28.23-.005.46-.02.688-.05v1.647a5.75 5.75 0 0 1-1.162.096c-2.062 0-2.866-.774-2.866-2.75v-5.838h-1.48V24.11h1.48V21.7h2.101ZM104.521 29.204c0-3.205 1.888-5.22 4.831-5.22 2.953 0 4.832 2.015 4.832 5.22 0 3.213-1.869 5.218-4.832 5.218-2.962 0-4.831-2.005-4.831-5.218Zm7.532 0c0-2.199-1.007-3.497-2.701-3.497-1.694 0-2.701 1.308-2.701 3.497 0 2.207 1.007 3.495 2.701 3.495 1.694 0 2.701-1.288 2.701-3.495ZM115.907 24.11h1.994v1.734h.049a2.43 2.43 0 0 1 2.45-1.84c.241-.001.481.025.716.077v1.956a2.92 2.92 0 0 0-.939-.126 2.107 2.107 0 0 0-2.179 2.344v6.041h-2.091V24.11ZM130.754 31.305c-.281 1.849-2.082 3.117-4.385 3.117-2.963 0-4.803-1.985-4.803-5.17 0-3.195 1.849-5.267 4.715-5.267 2.818 0 4.59 1.936 4.59 5.024v.717h-7.194v.126a2.655 2.655 0 0 0 2.74 2.885 2.306 2.306 0 0 0 2.352-1.433h1.985Zm-7.067-3.04h5.092a2.442 2.442 0 0 0-.684-1.84 2.455 2.455 0 0 0-1.814-.746 2.577 2.577 0 0 0-2.594 2.586Z" fill="#fff"/></g><defs><clipPath id="a"><path fill="#fff" d="M0 0h142.321v45H0z"/></clipPath></defs></svg>
