<svg width="153" height="45" fill="none" xmlns="http://www.w3.org/2000/svg"><g clip-path="url(#a)"><path d="M146.571 0H5.946A5.625 5.625 0 0 0 .321 5.625v33.75A5.625 5.625 0 0 0 5.946 45h140.625a5.625 5.625 0 0 0 5.625-5.625V5.625A5.625 5.625 0 0 0 146.571 0Z" fill="#000"/><path d="M146.571.9a4.725 4.725 0 0 1 4.725 4.725v33.75a4.726 4.726 0 0 1-4.725 4.725H5.946a4.725 4.725 0 0 1-4.725-4.725V5.625A4.725 4.725 0 0 1 5.946.9h140.625Zm0-.9H5.946A5.625 5.625 0 0 0 .321 5.625v33.75A5.625 5.625 0 0 0 5.946 45h140.625a5.622 5.622 0 0 0 5.625-5.625V5.625A5.625 5.625 0 0 0 146.571 0Z" fill="#A6A6A6"/><path d="M76.978 24.469a4.793 4.793 0 1 0 4.804 4.781 4.714 4.714 0 0 0-4.804-4.781Zm0 7.684a2.902 2.902 0 1 1 2.7-2.903 2.766 2.766 0 0 1-2.7 2.903Zm-10.485-7.684a4.793 4.793 0 1 0 4.804 4.781 4.714 4.714 0 0 0-4.804-4.781Zm0 7.684a2.902 2.902 0 1 1 2.7-2.903 2.766 2.766 0 0 1-2.7 2.903Zm-12.465-6.21v2.024h4.86a4.24 4.24 0 0 1-1.125 2.554 4.972 4.972 0 0 1-3.757 1.485 5.4 5.4 0 0 1 0-10.8 5.22 5.22 0 0 1 3.69 1.451l1.429-1.428a7.087 7.087 0 0 0-5.097-2.048 7.437 7.437 0 1 0 0 14.861 6.828 6.828 0 0 0 5.187-2.08 6.75 6.75 0 0 0 1.755-4.76 7.057 7.057 0 0 0-.102-1.26h-6.84Zm50.974 1.574a4.5 4.5 0 0 0-4.095-3.048 4.5 4.5 0 0 0-4.5 4.781 4.758 4.758 0 0 0 8.73 2.666l-1.631-1.125a2.707 2.707 0 0 1-2.351 1.317 2.419 2.419 0 0 1-2.318-1.452l6.401-2.643-.236-.496Zm-6.525 1.598a2.631 2.631 0 0 1 2.509-2.801 1.849 1.849 0 0 1 1.766 1.023l-4.275 1.778ZM93.28 33.75h2.103V19.687H93.28V33.75Zm-3.443-8.212h-.079a3.308 3.308 0 0 0-2.52-1.125 4.793 4.793 0 0 0 0 9.573 3.24 3.24 0 0 0 2.52-1.125h.08v.687c0 1.833-.98 2.812-2.555 2.812a2.655 2.655 0 0 1-2.418-1.699l-1.823.754a4.5 4.5 0 0 0 4.241 2.835c2.464 0 4.5-1.451 4.5-4.984V24.75h-1.946v.788Zm-2.419 6.615a2.902 2.902 0 0 1 0-5.794 2.689 2.689 0 0 1 2.565 2.891 2.677 2.677 0 0 1-2.565 2.903Zm27.439-12.465h-5.04V33.75h2.104v-5.332h2.936a4.378 4.378 0 0 0 4.69-4.366 4.375 4.375 0 0 0-4.69-4.364Zm0 6.75h-2.936v-4.793h2.981a2.415 2.415 0 0 1 1.703.705 2.413 2.413 0 0 1 0 3.405 2.414 2.414 0 0 1-1.703.705l-.045-.023Zm12.983-2.014a3.924 3.924 0 0 0-3.747 2.149l1.857.776a2 2 0 0 1 1.923-1.024 2.024 2.024 0 0 1 2.25 1.811v.135a4.698 4.698 0 0 0-2.193-.54c-2.003 0-4.05 1.125-4.05 3.173a3.254 3.254 0 0 0 3.498 3.094 2.981 2.981 0 0 0 2.678-1.373h.067v1.125h2.025v-5.411c0-2.464-1.867-3.893-4.263-3.893l-.045-.022Zm-.259 7.706c-.686 0-1.643-.349-1.643-1.193 0-1.125 1.193-1.507 2.25-1.507a3.736 3.736 0 0 1 1.913.473 2.544 2.544 0 0 1-2.475 2.25l-.045-.023Zm11.947-7.38-2.407 6.098h-.068l-2.497-6.098h-2.25l3.746 8.528-2.137 4.736h2.193l5.76-13.264h-2.34Zm-18.9 9h2.093V19.687h-2.093V33.75Z" fill="#fff"/><path d="M12.066 8.483a2.25 2.25 0 0 0-.529 1.575v24.885c-.038.574.152 1.14.529 1.575l.079.09 13.938-13.94v-.337L12.145 8.404l-.08.079Z" fill="url(#b)"/><path d="m30.696 27.315-4.613-4.646v-.338l4.613-4.646.101.068 5.524 3.127c1.575.889 1.575 2.351 0 3.251L30.82 27.26l-.124.056Z" fill="url(#c)"/><path d="M30.83 27.247 26.084 22.5 12.066 36.517a1.822 1.822 0 0 0 2.329.08l16.436-9.35" fill="url(#d)"/><path d="M30.83 17.753 14.396 8.415a1.811 1.811 0 0 0-2.33.068L26.084 22.5l4.748-4.747Z" fill="url(#e)"/><path opacity=".2" d="m30.696 27.146-16.301 9.282a1.867 1.867 0 0 1-2.25 0l-.08.078.08.09a1.867 1.867 0 0 0 2.25 0l16.436-9.348-.135-.102Z" fill="#000"/><path opacity=".12" d="M12.066 36.36a2.25 2.25 0 0 1-.495-1.586v.169c-.038.574.152 1.14.529 1.575l.079-.08-.113-.078ZM36.321 23.962l-5.625 3.184.101.101 5.524-3.127a1.969 1.969 0 0 0 1.193-1.62 2.093 2.093 0 0 1-1.193 1.462Z" fill="#000"/><path opacity=".25" d="M14.395 8.572 36.32 21.038a2.091 2.091 0 0 1 1.193 1.462 1.969 1.969 0 0 0-1.193-1.62L14.395 8.415c-1.564-.9-2.858-.158-2.858 1.643v.168c.034-1.8 1.294-2.542 2.858-1.654Z" fill="#fff"/><path d="M46.761 14.625v-6.75h2.059a3.375 3.375 0 0 1 2.497.934 3.375 3.375 0 0 1 .934 2.441 3.377 3.377 0 0 1-.934 2.441 3.373 3.373 0 0 1-2.497.934H46.76Zm.866-.832h1.193a2.34 2.34 0 0 0 2.542-2.543 2.35 2.35 0 0 0-2.542-2.542h-1.193v5.085ZM53.466 14.625v-6.75h.855v6.75h-.855ZM57.775 14.771a2.52 2.52 0 0 1-1.429-.472 2.25 2.25 0 0 1-.922-1.35l.787-.326c.096.366.3.695.585.945.269.242.617.378.979.382a1.53 1.53 0 0 0 .967-.304.934.934 0 0 0 .405-.799 1.034 1.034 0 0 0-.405-.877 4.161 4.161 0 0 0-1.26-.574 3.23 3.23 0 0 1-1.361-.731 1.518 1.518 0 0 1-.461-1.125 1.698 1.698 0 0 1 .574-1.271 2.43 2.43 0 0 1 2.89-.101c.325.23.569.557.698.933l-.787.327a1.182 1.182 0 0 0-.416-.585 1.294 1.294 0 0 0-.867-.282 1.373 1.373 0 0 0-.855.282.854.854 0 0 0-.264 1.053c.057.11.14.204.242.274.288.213.612.373.956.473.283.084.561.186.832.303.24.11.466.246.676.405.222.16.4.372.517.619.126.27.188.567.18.866.005.305-.065.606-.203.878-.123.246-.31.455-.54.607a2.51 2.51 0 0 1-.72.349c-.26.073-.529.107-.798.101ZM62.196 14.625h-.866v-6.75h2.25c.55-.01 1.083.196 1.485.574a1.946 1.946 0 0 1 0 2.868 2.115 2.115 0 0 1-1.485.574h-1.384v2.734Zm0-3.566h1.462a1.125 1.125 0 0 0 .867-.36 1.126 1.126 0 0 0 0-1.632 1.125 1.125 0 0 0-.867-.36h-1.462v2.352ZM72.321 13.748a3.5 3.5 0 0 1-4.95 0 3.645 3.645 0 0 1 0-4.996 3.498 3.498 0 0 1 4.95 0 3.465 3.465 0 0 1 .979 2.498 3.376 3.376 0 0 1-.979 2.498Zm-4.309-.563a2.497 2.497 0 0 0 1.834.765 2.465 2.465 0 0 0 1.834-.765 2.858 2.858 0 0 0 0-3.87 2.464 2.464 0 0 0-1.834-.765 2.497 2.497 0 0 0-1.834.765 2.891 2.891 0 0 0 0 3.87ZM74.571 14.625v-6.75h1.058l3.273 5.254V7.875h.878v6.75h-.912l-3.374-5.501v5.501h-.923ZM81.321 14.625v-6.75h.866v6.75h-.866ZM83.672 14.625v-6.75h2.441c.507-.005.996.18 1.373.517a1.699 1.699 0 0 1 .585 1.317c.003.303-.083.6-.248.855a1.586 1.586 0 0 1-.663.551c.325.111.61.314.82.585.208.276.318.612.316.956a1.765 1.765 0 0 1-.608 1.373c-.39.363-.906.56-1.44.551l-2.576.045Zm.866-3.859h1.575a.978.978 0 0 0 .788-.326c.19-.187.3-.442.304-.709.01-.268-.082-.53-.26-.731a.956.956 0 0 0-.753-.315h-1.654v2.081Zm0 3.027h1.755a1.035 1.035 0 0 0 .81-.35c.195-.207.303-.48.304-.764a1.125 1.125 0 0 0-.315-.754 1.124 1.124 0 0 0-.844-.349h-1.71v2.216ZM89.466 14.625v-6.75h.855v5.918h2.925v.832h-3.78ZM98.286 8.707h-3.071v2.138h2.767v.81h-2.767v2.138h3.07v.832h-3.937v-6.75h3.938v.832ZM103.528 14.771a2.579 2.579 0 0 1-1.44-.472 2.255 2.255 0 0 1-.911-1.35l.788-.326c.096.366.3.695.585.945.268.242.616.378.978.382.348.01.689-.097.968-.304a.93.93 0 0 0 .405-.799 1.03 1.03 0 0 0-.405-.877 4.25 4.25 0 0 0-1.271-.574 3.18 3.18 0 0 1-1.35-.731 1.476 1.476 0 0 1-.462-1.125 1.71 1.71 0 0 1 .574-1.271 2.433 2.433 0 0 1 2.891-.101c.324.23.568.557.698.933l-.788.327a1.124 1.124 0 0 0-.427-.585 1.249 1.249 0 0 0-.855-.282 1.371 1.371 0 0 0-.855.282.869.869 0 0 0-.36.697.78.78 0 0 0 .326.63c.291.209.614.368.956.473.288.083.57.184.844.303.238.113.464.248.675.405.222.16.401.372.518.619a2.1 2.1 0 0 1 .18.866 1.87 1.87 0 0 1-.203.878c-.124.246-.31.455-.54.607-.22.154-.463.272-.72.349-.26.073-.529.107-.799.101ZM109.378 14.771a2.358 2.358 0 0 1-1.811-.731 2.699 2.699 0 0 1-.686-1.924V7.875h.866v4.275c-.023.47.125.934.416 1.305a1.518 1.518 0 0 0 1.215.495 1.483 1.483 0 0 0 1.193-.45c.295-.37.447-.833.427-1.305v-4.32h.867v4.241a2.714 2.714 0 0 1-.675 1.924 2.33 2.33 0 0 1-1.812.731ZM113.271 14.625v-6.75h2.25a2.114 2.114 0 0 1 1.485.574 1.84 1.84 0 0 1 .63 1.44c0 .458-.164.9-.461 1.248a1.98 1.98 0 0 1-1.125.675l1.89 2.813h-1.024l-1.845-2.734h-.956v2.734h-.844Zm.866-3.544h1.395a1.27 1.27 0 0 0 .889-.337 1.13 1.13 0 0 0 .371-.855 1.227 1.227 0 0 0-.326-.822 1.12 1.12 0 0 0-.878-.36h-1.451v2.374Z" fill="#fff" stroke="#fff" stroke-width=".2" stroke-miterlimit="10"/></g><defs><linearGradient id="b" x1="24.846" y1="9.799" x2="5.968" y2="28.676" gradientUnits="userSpaceOnUse"><stop stop-color="#00A0FF"/><stop offset=".01" stop-color="#00A1FF"/><stop offset=".26" stop-color="#00BEFF"/><stop offset=".51" stop-color="#00D2FF"/><stop offset=".76" stop-color="#00DFFF"/><stop offset="1" stop-color="#00E3FF"/></linearGradient><linearGradient id="c" x1="38.38" y1="22.5" x2="11.166" y2="22.5" gradientUnits="userSpaceOnUse"><stop stop-color="#FFE000"/><stop offset=".41" stop-color="#FFBD00"/><stop offset=".78" stop-color="orange"/><stop offset="1" stop-color="#FF9C00"/></linearGradient><linearGradient id="d" x1="28.255" y1="25.087" x2="2.65" y2="50.681" gradientUnits="userSpaceOnUse"><stop stop-color="#FF3A44"/><stop offset="1" stop-color="#C31162"/></linearGradient><linearGradient id="e" x1="8.533" y1=".203" x2="19.963" y2="11.633" gradientUnits="userSpaceOnUse"><stop stop-color="#32A071"/><stop offset=".07" stop-color="#2DA771"/><stop offset=".48" stop-color="#15CF74"/><stop offset=".8" stop-color="#06E775"/><stop offset="1" stop-color="#00F076"/></linearGradient><clipPath id="a"><path fill="#fff" transform="translate(.321)" d="M0 0h151.875v45H0z"/></clipPath></defs></svg>
